<svg xmlns="http://www.w3.org/2000/svg" width="331" height="689" xmlns:v="https://vecta.io/nano"><linearGradient id="A" gradientUnits="userSpaceOnUse" x1="164.905" y1="720.351" x2="164.905" y2="54.675"><stop offset="0" stop-color="#aef6ff"/><stop offset="1" stop-color="#ddf4ff"/></linearGradient><path d="M312.246 636.399c0 18.1-13.471 32.6-30.672 32.6H49.321c-17.201 0-31.757-14.5-31.757-32.6V48.406c0-18.098 14.557-32.629 31.757-32.629h232.252c17.202 0 30.672 14.531 30.672 32.629v587.993z" fill="url(#A)"/><linearGradient id="B" gradientUnits="userSpaceOnUse" x1="9.88" y1="691.22" x2="326.364" y2="-13.745"><stop offset="0" stop-color="#6b6b6b"/><stop offset="1" stop-color="#636363"/></linearGradient><path d="M296.001 0H35C15.67 0 0 15.472 0 34.558v620.064c0 19.086 15.67 34.377 35 34.377h261.001c19.331 0 35-15.291 35-34.377V34.558c0-19.086-15.669-34.558-35-34.558zm-130.5 16.334a5.2 5.2 0 0 1 5.199 5.198 5.2 5.2 0 0 1-5.199 5.198 5.2 5.2 0 0 1-5.199-5.198 5.2 5.2 0 0 1 5.199-5.198zm146.745 620.065c0 18.1-13.471 32.6-30.672 32.6H49.321c-17.201 0-31.757-14.5-31.757-32.6V48.406c0-18.098 14.557-32.629 31.757-32.629h86.512s9.781 1.308 13.301 7.958 9.633 10.171 15.771 10.171h.596c6.137 0 12.248-3.521 15.77-10.171s13.3-7.958 13.3-7.958h87.002c17.202 0 30.672 14.531 30.672 32.629v587.993z" fill="url(#B)"/><circle cx="165.5" cy="21.674" r="5.354" fill="#a0a0a0"/><path d="M262.126 304.588a19.56 19.56 0 0 0 .136-2.271v-72.096c0-10.72-8.689-19.411-19.41-19.411H115.297c-10.721 0-19.411 8.69-19.411 19.411v72.096c0 10.721 8.69 19.411 19.411 19.411h127.555l23.293 6.101-4.019-23.241zm-119.431-28.985a12.01 12.01 0 0 1-12.006-12.006 12.01 12.01 0 0 1 12.006-12.006 12.01 12.01 0 0 1 12.006 12.006 12.01 12.01 0 0 1-12.006 12.006zm34.743 0a12.01 12.01 0 0 1-12.006-12.006 12.01 12.01 0 0 1 12.006-12.006 12.01 12.01 0 0 1 12.006 12.006 12.01 12.01 0 0 1-12.006 12.006zm34.744 0a12.01 12.01 0 0 1-12.006-12.006 12.01 12.01 0 0 1 12.006-12.006 12.01 12.01 0 0 1 12.006 12.006 12.01 12.01 0 0 1-12.006 12.006z" fill="#587ce0"/><path d="M68.621 451.319l23.293-6.101H219.47c10.72 0 19.41-8.69 19.41-19.41v-72.097c0-10.721-8.69-19.41-19.41-19.41H91.914c-10.72 0-19.41 8.689-19.41 19.41v72.097a19.56 19.56 0 0 0 .136 2.271l-4.019 23.24zm111.443-64.232a12.01 12.01 0 0 1 12.006-12.006 12.01 12.01 0 0 1 12.007 12.006 12.01 12.01 0 0 1-12.007 12.007 12.01 12.01 0 0 1-12.006-12.007zm-34.743 0a12.01 12.01 0 0 1 12.007-12.006 12.01 12.01 0 0 1 12.006 12.006 12.01 12.01 0 0 1-12.006 12.007 12.01 12.01 0 0 1-12.007-12.007zm-34.743 0a12.01 12.01 0 0 1 12.007-12.006 12.01 12.01 0 0 1 12.006 12.006 12.01 12.01 0 0 1-12.006 12.007 12.01 12.01 0 0 1-12.007-12.007z" fill="#4fd362"/></svg>